<!-- icons.svg -->
<svg xmlns="http://www.w3.org/2000/svg" style="display: none;">

  <!-- Ícono de estrella -->
  <symbol id="star" viewBox="0 0 24 24" fill="currentColor" stroke="currentColor" stroke-width="1" stroke-linecap="round" stroke-linejoin="round">
    <path d="M17.286 21.09q -1.69 .001 -5.288 -2.615q -3.596 2.617 -5.288 2.616q -2.726 0 -.495 -6.8q -9.389 -6.775 2.135 -6.775h.076q 1.785 -5.516 3.574 -5.516q 1.785 0 3.574 5.516h.076q 11.525 0 2.133 6.774q 2.23 6.802 -.497 6.8" />
  </symbol>

  <!-- Ícono de dispositivo -->
  <!--
  category: Devices
  tags: [computer, laptop, notebook, tablet, phone, mobile, mac, iphone]
  version: "1.3"
  unicode: "eb87"
  -->
  <symbol id="device" viewBox="0 0 24 24" fill="none" stroke="currentColor" stroke-width="1" stroke-linecap="round" stroke-linejoin="round">
    <path d="M13 9a1 1 0 0 1 1 -1h6a1 1 0 0 1 1 1v10a1 1 0 0 1 -1 1h-6a1 1 0 0 1 -1 -1v-10z" />
    <path d="M18 8v-3a1 1 0 0 0 -1 -1h-13a1 1 0 0 0 -1 1v12a1 1 0 0 0 1 1h9" />
    <path d="M16 9h2" />
  </symbol>

  <!-- Ícono de aplicación/brand -->
  <!--
  tags: [logo, app, application, communication, text, messages, communicator, photos, images, videos, giphy]
  category: Brand
  version: "1.13"
  unicode: "ec74"
  -->
  <symbol id="whatsapp" viewBox="0 0 24 24" fill="none" stroke="currentColor" stroke-width="1" stroke-linecap="round" stroke-linejoin="round">
    <path d="M3 21l1.65 -3.8a9 9 0 1 1 3.4 2.9l-5.05 .9" />
    <path d="M9 10a.5 .5 0 0 0 1 0v-1a.5 .5 0 0 0 -1 0v1a5 5 0 0 0 5 5h1a.5 .5 0 0 0 0 -1h-1a.5 .5 0 0 0 0 1" />
  </symbol>

</svg>
